PathFileType  4	(X/Y/Z) /Users/callumsherry/opencap-sandboxes/opencap-core-sandbox/diagnostics/openpose_swapped
DataRate	CameraRate	NumFrames	NumMarkers	Units	OrigDataRate	OrigDataStartFrame	OrigNumFrames
60.0	60.0	9	20	m	60.0	163	651
Frame#	Time	Neck			RShoulder			RElbow			RWrist			LShoulder			LElbow			LWrist			midHip			RHip			RKnee			RAnkle			LHip			LKnee			LAnkle			LBigToe			LSmallToe			LHeel			RBigToe			RSmallToe			RHeel			
		X1	Y1	Z1	X2	Y2	Z2	X3	Y3	Z3	X4	Y4	Z4	X5	Y5	Z5	X6	Y6	Z6	X7	Y7	Z7	X8	Y8	Z8	X9	Y9	Z9	X10	Y10	Z10	X11	Y11	Z11	X12	Y12	Z12	X13	Y13	Z13	X14	Y14	Z14	X15	Y15	Z15	X16	Y16	Z16	X17	Y17	Z17	X18	Y18	Z18	X19	Y19	Z19	X20	Y20	Z20	

163	2.7000000	-0.4916500	1.0951600	-0.1867800	-0.4824900	1.0859600	-0.0027000	-0.6075200	0.8361000	0.1069500	-0.5873400	0.5888800	0.1355600	-0.4694500	1.1053900	-0.3599300	-0.6247700	0.8593800	-0.4818200	-0.6206500	0.6255700	-0.4965500	-0.6437300	0.6943500	-0.1824700	-0.6620500	0.6977000	-0.0516300	-0.4210300	0.4837800	-0.0177700	-0.6444100	0.1073300	-0.0427900	-0.6510700	0.6843300	-0.3143500	-0.4660800	0.4517500	-0.3702800	-0.6793600	0.1080100	-0.3194600	-0.4856300	0.0478600	-0.3184800	-0.5139400	0.0456100	-0.3625900	-0.7227800	0.0866000	-0.2880900	-0.4871000	0.0469700	-0.0346500	-0.5271000	0.0501200	0.0163600	-0.7266000	0.0624500	-0.0733100
164	2.7166667	-0.4924800	1.0954400	-0.1865800	-0.4819400	1.0819600	-0.0026500	-0.6059000	0.8324000	0.1071100	-0.5875200	0.5837600	0.1356300	-0.4705700	1.1045600	-0.3592600	-0.6247600	0.8489600	-0.4820400	-0.6398100	0.6202100	-0.5053500	-0.6428600	0.6938600	-0.1823200	-0.6627200	0.6925000	-0.0518900	-0.4188200	0.4744400	-0.0179000	-0.6442600	0.1071900	-0.0428000	-0.6684600	0.6759800	-0.3114700	-0.4474800	0.4571900	-0.3630700	-0.6776400	0.1082000	-0.3190900	-0.4850700	0.0481100	-0.3182800	-0.5115700	0.0416400	-0.3619200	-0.7192800	0.0818200	-0.2871800	-0.4874600	0.0467600	-0.0342300	-0.5277100	0.0496500	0.0162700	-0.7532700	0.0529800	-0.0799800
165	2.7333333	-0.4907700	1.0901800	-0.1865900	-0.4664300	1.0824200	-0.0073500	-0.6069000	0.8361100	0.1067200	-0.5872500	0.5781000	0.1357200	-0.4695700	1.1051700	-0.3598600	-0.6245100	0.8488700	-0.4819900	-0.6399100	0.6155800	-0.5051100	-0.6435700	0.6886500	-0.1822100	-0.6626900	0.6916900	-0.0518300	-0.4205200	0.4736500	-0.0177700	-0.6441500	0.1073800	-0.0428300	-0.6710200	0.6752100	-0.3110200	-0.4475400	0.4571200	-0.3630000	-0.6793300	0.1079100	-0.3194500	-0.4872100	0.0417300	-0.3194000	-0.5122400	0.0411200	-0.3618800	-0.7210300	0.0807400	-0.2873700	-0.4870700	0.0469800	-0.0347600	-0.5269700	0.0501500	0.0162700	-0.7265300	0.0623500	-0.0733300
166	2.7500000	-0.4919000	1.0905700	-0.1865100	-0.4817000	1.0819000	-0.0026600	-0.6055900	0.8317400	0.1065500	-0.5875200	0.5783100	0.1354900	-0.4703800	1.1045100	-0.3593400	-0.6049900	0.8515300	-0.4736800	-0.6390300	0.6148500	-0.5053400	-0.6647500	0.6839400	-0.1887300	-0.6632100	0.6922800	-0.0519300	-0.4174100	0.4799800	-0.0176100	-0.6438400	0.1073500	-0.0428900	-0.6684800	0.6758400	-0.3114800	-0.4472100	0.4573100	-0.3630800	-0.6776000	0.1082100	-0.3190900	-0.4868500	0.0419500	-0.3192200	-0.5130600	0.0460000	-0.3625700	-0.7191500	0.0818000	-0.2871700	-0.4872800	0.0469200	-0.0343100	-0.5274900	0.0497800	0.0162000	-0.7528900	0.0530200	-0.0800600
167	2.7666667	-0.4909600	1.0951700	-0.1868100	-0.4661800	1.0869800	-0.0075900	-0.5895400	0.8332700	0.1008900	-0.5878400	0.5831700	0.1353200	-0.4688700	1.1052700	-0.3600300	-0.6051100	0.8565000	-0.4735500	-0.6396300	0.6212900	-0.5052800	-0.6435200	0.6942200	-0.1824300	-0.6624300	0.6917300	-0.0518500	-0.4210000	0.4735500	-0.0178000	-0.6440800	0.1074600	-0.0428800	-0.6507200	0.6790600	-0.3145200	-0.4473500	0.4572500	-0.3630000	-0.6793800	0.1079300	-0.3194600	-0.4873400	0.0417500	-0.3193800	-0.5138400	0.0455100	-0.3625300	-0.7210200	0.0807600	-0.2873600	-0.4869300	0.0471100	-0.0347600	-0.5289300	0.0545600	0.0156700	-0.7513600	0.0526500	-0.0795300
168	2.7833333	-0.4757600	1.1012200	-0.1907700	-0.4656100	1.0920800	-0.0080100	-0.6122200	0.8358000	0.0959900	-0.6056500	0.5904800	0.1407600	-0.4700400	1.1095800	-0.3594500	-0.6246600	0.8595500	-0.4709300	-0.6393400	0.6260500	-0.5051400	-0.6427800	0.6939000	-0.1822600	-0.6628700	0.6925200	-0.0519500	-0.4204700	0.4793000	-0.0184600	-0.6437400	0.1073900	-0.0428600	-0.6680500	0.6761400	-0.3113000	-0.4471600	0.4571600	-0.3629300	-0.6774500	0.1082700	-0.3190700	-0.4870400	0.0419100	-0.3192300	-0.5130900	0.0460600	-0.3625700	-0.7189700	0.0818700	-0.2871700	-0.4872100	0.0469800	-0.0342600	-0.5295000	0.0541400	0.0156500	-0.7277000	0.0628900	-0.0738700
169	2.8000000	-0.4908900	1.1049400	-0.1868400	-0.4668900	1.0970000	-0.0078100	-0.6133000	0.8454000	0.0957300	-0.5887900	0.6048800	0.1348300	-0.4692000	1.1152900	-0.3599400	-0.6248900	0.8654500	-0.4710100	-0.6197900	0.6368400	-0.5073700	-0.6439200	0.6943100	-0.1824500	-0.6627600	0.6918600	-0.0518800	-0.4226700	0.4782300	-0.0182000	-0.6443000	0.1072900	-0.0427900	-0.6710600	0.6809600	-0.3112000	-0.4473800	0.4573400	-0.3628700	-0.6791600	0.1079200	-0.3194600	-0.4875300	0.0417500	-0.3193800	-0.5139400	0.0455500	-0.3625300	-0.7208800	0.0806900	-0.2874800	-0.4866800	0.0473000	-0.0348000	-0.5288600	0.0546100	0.0156300	-0.7266600	0.0622400	-0.0732900
170	2.8166667	-0.4926700	1.1105300	-0.1867900	-0.4816700	1.1010800	-0.0031300	-0.6127100	0.8521200	0.0956000	-0.5898800	0.6106100	0.1342400	-0.4704100	1.1197400	-0.3593000	-0.6253000	0.8762800	-0.4707600	-0.5996800	0.6457600	-0.4992900	-0.6433600	0.6941200	-0.1823100	-0.6628900	0.6928600	-0.0519900	-0.4193200	0.4740800	-0.0180800	-0.6439000	0.1071800	-0.0427800	-0.6692600	0.6869800	-0.3113400	-0.4475600	0.4571900	-0.3628500	-0.6774200	0.1082700	-0.3190200	-0.4872300	0.0418700	-0.3192700	-0.5133000	0.0460900	-0.3625700	-0.7188200	0.0819100	-0.2871300	-0.4698700	0.0543400	-0.0392900	-0.5293600	0.0542500	0.0156000	-0.7288800	0.0574600	-0.0731500
171	2.8333333	-0.4916100	1.1201000	-0.1869200	-0.4667700	1.1113100	-0.0080800	-0.6130400	0.8624200	0.0952900	-0.5892900	0.6215400	0.1342700	-0.4691000	1.1303300	-0.3596400	-0.6246300	0.8873200	-0.4702700	-0.6003900	0.6521700	-0.4993500	-0.6436500	0.7056300	-0.1826200	-0.6430400	0.7122700	-0.0568600	-0.4222200	0.4732400	-0.0179800	-0.6442200	0.1073000	-0.0428200	-0.6515400	0.6956000	-0.3144900	-0.4476200	0.4571300	-0.3627100	-0.6793700	0.1078600	-0.3193900	-0.4875900	0.0417100	-0.3194000	-0.5140600	0.0455300	-0.3625500	-0.7230800	0.0862700	-0.2881300	-0.4866000	0.0474200	-0.0347800	-0.5288200	0.0547700	0.0156300	-0.7264700	0.0622800	-0.0733400
